<?xml version="1.0" encoding="utf-8"?><!-- Uploaded to: SVG Repo, www.svgrepo.com, Generator: SVG Repo Mixer Tools -->
<svg version="1.1" id="Uploaded to svgrepo.com" xmlns="http://www.w3.org/2000/svg" xmlns:xlink="http://www.w3.org/1999/xlink" 
	 width="800px" height="800px" viewBox="0 0 32 32" xml:space="preserve">
<style type="text/css">
	.puchipuchi_een{fill:#111918;}
</style>
<path class="puchipuchi_een" d="M16.707,13.707c-0.389-0.389-0.389-1.025,0-1.414l3.939-3.939l5,5l-3.939,3.939
	c-0.194,0.194-0.451,0.292-0.707,0.292s-0.513-0.097-0.707-0.292L16.707,13.707z M26.707,3.707C26.513,3.513,26.256,3.415,26,3.415
	s-0.513,0.097-0.707,0.292l-3.939,3.939l5,5l3.939-3.939c0.389-0.389,0.389-1.025,0-1.414L26.707,3.707z M27,13.414V29
	c0,1.1-0.9,2-2,2H3c-1.1,0-2-0.9-2-2V3c0-1.1,0.9-2,2-2h22c0.988,0,1.809,0.728,1.967,1.673C26.673,2.51,26.346,2.415,26,2.415
	c-0.535,0-1.037,0.208-1.414,0.585l-4,4H7C6.447,7,6,7.447,6,8s0.447,1,1,1h11.586l-2,2H7c-0.553,0-1,0.447-1,1s0.447,1,1,1h8.415
	c0,0.535,0.208,1.037,0.585,1.414L19.586,18c0.377,0.377,0.879,0.585,1.414,0.585s1.037-0.208,1.414-0.585L27,13.414z M10,19H7
	c-0.553,0-1,0.447-1,1s0.447,1,1,1h1L10,19z M12,17l2-2H7c-0.553,0-1,0.447-1,1s0.447,1,1,1H12z M22,24c0-0.553-0.447-1-1-1h-5l-2,2
	h7C21.553,25,22,24.553,22,24z M22,20c0-0.553-0.447-1-1-1h-1l-2,2h3C21.553,21,22,20.553,22,20z"/>
</svg>